<svg width="72" height="72" viewBox="0 0 72 72" fill="none" xmlns="http://www.w3.org/2000/svg">
<g clip-path="url(#clip0_542_65)">
<rect width="72" height="72" rx="36" fill="#CAC2FF"/>
<mask id="mask0_542_65" style="mask-type:luminance" maskUnits="userSpaceOnUse" x="1" y="49" width="67" height="34">
<path d="M1.51752 56.2708C1.51752 56.2708 4.19254 70.1472 4.46517 70.4191C4.73707 70.691 34.7119 82.8898 34.7119 82.8898C34.7119 82.8898 54.03 79.7604 54.03 79.4431C54.03 79.1258 67.9057 58.5376 67.9057 58.5376C67.9057 58.5376 66.5 56.5882 63.0085 54.2297C62.4424 53.8482 61.5329 53.4761 60.4013 53.1183C60.1546 53.0404 59.8972 52.9626 59.6303 52.8861C59.6289 52.8854 59.6267 52.8854 59.6253 52.8847C58.7403 52.6301 57.7522 52.3827 56.7086 52.1447C53.8771 54.3004 41.6415 49.8981 39.9372 50.452C38.4335 50.9402 37.053 52.3805 36.2878 54.1266C36.2806 54.141 36.2741 54.1562 36.2676 54.1713C36.1717 54.3942 36.0852 54.6214 36.0102 54.8522C35.99 54.9156 35.9698 54.9791 35.951 55.0426C35.951 55.0426 35.9279 54.9712 35.8818 54.8464C35.5637 53.9824 34.1645 50.5421 31.9547 50.2558C30.1329 50.0199 26.79 49.8346 24.1229 49.347C22.6336 49.7459 20.6199 50.2262 18.5082 50.7109C18.1663 50.7895 17.8216 50.8681 17.4768 50.946C16.7527 51.1112 16.025 51.2749 15.3102 51.4343C11.4344 52.3026 7.94653 53.0585 7.50297 53.2323C6.46008 53.6405 1.51752 56.2708 1.51752 56.2708Z" fill="white"/>
</mask>
<g mask="url(#mask0_542_65)">
<path d="M1.51746 56.2708C1.51746 56.2708 4.19248 70.1471 4.46511 70.4191C4.73701 70.691 34.7119 82.8898 34.7119 82.8898C34.7119 82.8898 54.0299 79.7604 54.0299 79.443C54.0299 79.1257 67.9056 58.5376 67.9056 58.5376C67.9056 58.5376 66.4999 56.5881 63.0085 54.2297C62.4423 53.8482 61.5328 53.476 60.4012 53.1183C60.1546 53.0404 59.8971 52.9625 59.6302 52.886C59.6288 52.8853 59.6266 52.8853 59.6252 52.8846C58.7402 52.63 57.7522 52.3826 56.7086 52.1446C53.877 54.3004 41.6414 49.898 39.9372 50.4519C38.4334 50.9402 37.053 52.3805 36.2878 54.1265C36.2806 54.141 36.2741 54.1561 36.2676 54.1713C36.1716 54.3941 36.0851 54.6213 36.0101 54.8521C35.9899 54.9156 35.9697 54.979 35.9509 55.0425C35.9509 55.0425 35.9279 54.9711 35.8817 54.8463C35.5637 53.9823 34.1645 50.5421 31.9546 50.2557C30.1328 50.0199 26.7899 49.8345 24.1228 49.347C22.6335 49.7458 20.6198 50.2262 18.5081 50.7108C18.1662 50.7894 17.8215 50.868 17.4767 50.9459C16.7526 51.1111 16.0249 51.2748 15.3102 51.4342C11.4343 52.3026 7.94647 53.0584 7.50291 53.2322C6.46002 53.6404 1.51746 56.2708 1.51746 56.2708Z" fill="#4C70F5" stroke="black" stroke-width="0.641089" stroke-linecap="round" stroke-linejoin="round"/>
<path d="M49.414 67.4234L43.3074 61.4301L41.3002 68.8803L49.414 67.4234Z" fill="#F5D256" stroke="black" stroke-width="0.641089" stroke-linecap="round" stroke-linejoin="round"/>
<path d="M27.7629 68.3264L28.4033 59.7936L21.4161 63.0651L27.7629 68.3264Z" fill="#49A2A6" stroke="black" stroke-width="0.641089" stroke-linecap="round" stroke-linejoin="round"/>
<path d="M15.4487 67.4112L8.13544 71.854L14.8609 75.6346L15.4487 67.4112Z" fill="#F5D256" stroke="black" stroke-width="0.641089" stroke-linecap="round" stroke-linejoin="round"/>
<path d="M63.2868 52.5474L55.9743 56.9895L62.6997 60.7701L63.2868 52.5474Z" fill="#49A2A6" stroke="black" stroke-width="0.641089" stroke-linecap="round" stroke-linejoin="round"/>
<path d="M14.9791 62.2385L16.6343 52.7364L5.06152 58.155L14.9791 62.2385Z" fill="#BF9EF9" stroke="black" stroke-width="0.641089" stroke-linecap="round" stroke-linejoin="round"/>
<path d="M48.1303 58.2819L49.7862 48.7805L38.2134 54.199L48.1303 58.2819Z" fill="#E938B5" stroke="black" stroke-width="0.641089" stroke-linecap="round" stroke-linejoin="round"/>
<path d="M56.4049 66.2847L61.0546 74.7346L66.6968 63.2692L56.4049 66.2847Z" fill="#BF9EF9" stroke="black" stroke-width="0.641089" stroke-linecap="round" stroke-linejoin="round"/>
<path d="M23.6281 56.0779L32.4148 52.0988L21.4225 45.5818L23.6281 56.0779Z" fill="#F5D256" stroke="black" stroke-width="0.641089" stroke-linecap="round" stroke-linejoin="round"/>
</g>
<path opacity="0.52" d="M36.0101 54.8526C36.0151 54.8757 36.0202 54.898 36.0252 54.9211L36.2365 56.6586C36.2603 55.2608 37.5968 54.1775 38.9693 53.915C40.3418 53.6525 41.7467 53.9994 43.1163 54.2785C45.5959 54.7827 48.1209 55.0675 50.6502 55.1274C54.0133 55.2067 57.5242 54.844 60.4012 53.1188C60.1546 53.0409 59.8971 52.963 59.6302 52.8865C59.6288 52.8858 59.6266 52.8858 59.6252 52.8851C58.7402 52.6305 57.7522 52.3831 56.7085 52.1451C53.877 54.3009 41.6414 49.8985 39.9371 50.4524C38.4204 50.945 37.0292 52.4055 36.2675 54.1718C36.1716 54.3946 36.0851 54.6218 36.0101 54.8526Z" fill="#0B41B7"/>
<path opacity="0.52" d="M17.4767 50.9464C21.2783 52.976 25.9757 52.5829 29.9359 54.303C31.3301 54.9081 32.6124 55.7714 33.6971 56.836C34.0678 57.1987 34.5914 57.6171 35.0408 57.3581C35.1792 57.2788 35.2773 57.1454 35.3653 57.0119C35.837 56.2914 36.2906 55.0776 36.2878 54.127C36.2806 54.1415 36.2741 54.1566 36.2676 54.1718C36.1716 54.3946 36.0851 54.6218 36.0101 54.8526C35.9899 54.9161 35.9697 54.9795 35.9509 55.043C35.9509 55.043 35.9279 54.9716 35.8817 54.8468C35.5637 53.9828 34.1645 50.5425 31.9546 50.2562C30.1328 50.0204 26.7899 49.835 24.1228 49.3475C22.6335 49.7463 20.6198 50.2266 18.5081 50.7113C18.1662 50.7899 17.8215 50.8685 17.4767 50.9464Z" fill="#0B41B7"/>
<path d="M24.65 26.5438C25.2833 27.6083 27.0791 28.7637 28.4292 29.5246C28.8887 32.3049 28.3088 37.7192 27.6806 42.0552C27.5602 42.8861 27.4376 43.678 27.3207 44.4035C27.0813 45.8907 26.8642 47.1024 26.7286 47.8128C29.1534 48.1351 31.7361 48.2087 32.8258 48.2909C34.3967 48.4092 35.2275 51.6086 35.6307 53.5638C35.7483 54.1314 35.829 54.5944 35.8817 54.8469C35.9278 54.9716 35.9509 55.043 35.9509 55.043C35.9661 54.3983 36.0468 53.7997 36.1781 53.2458C36.225 53.0474 36.2791 52.8549 36.3389 52.6681C36.4096 52.4474 36.4882 52.2346 36.5748 52.0298C37.2751 50.3709 38.4601 49.2444 39.5938 48.6378C40.0525 48.3926 40.7334 48.3356 41.5772 48.3998C41.4546 47.887 41.4034 47.168 41.3933 46.3818C41.3825 45.4558 41.4293 44.4367 41.4856 43.5554C41.5541 42.4944 41.6371 41.6326 41.65 41.3686C43.4026 41.9831 45.2641 42.2189 47.0347 41.6686C47.4126 41.5511 47.7862 41.3982 48.1541 41.2049C54.5787 37.8324 50.4447 27.8766 47.2799 22.0513C45.867 19.4505 44.6475 17.6734 44.6475 17.6734C44.5248 17.5934 43.619 17.4116 42.3561 17.2356H42.3554C39.058 16.7755 33.3257 16.3521 32.74 17.8617C31.9308 19.9496 33.5117 21.0899 33.0855 21.9424C32.6592 22.7941 31.7649 24.9246 31.7649 24.9246C31.7649 24.9246 31.6221 24.6196 31.3718 24.189C30.7076 23.0458 29.2889 21.0206 27.8025 21.5161C27.1166 21.7448 26.417 22.184 25.8299 22.735C25.7535 22.8057 25.6792 22.8792 25.6071 22.9543C24.5765 24.0246 23.9887 25.4324 24.65 26.5438Z" fill="#CC927A" stroke="black" stroke-width="0.641089" stroke-linecap="round" stroke-linejoin="round"/>
<path d="M46.6215 35.35C46.4831 36.5753 46.2624 37.8072 46.3922 39.034C46.4874 39.9334 46.7679 40.8003 47.0348 41.6686C47.4127 41.5511 47.7863 41.3982 48.1541 41.2049C54.5788 37.8324 50.4447 27.8766 47.28 22.0513C45.8671 19.4505 44.6475 17.6734 44.6475 17.6734C44.5249 17.5934 43.6191 17.4116 42.3562 17.2357C45.7885 22.5482 47.3319 29.063 46.6215 35.35Z" fill="#FFC7B3"/>
<path d="M25.83 22.735C26.8007 22.8071 27.7628 22.9607 28.6413 23.366C29.3027 23.6718 29.915 24.119 30.6326 24.2459C30.8778 24.2899 31.1483 24.2863 31.3719 24.189C30.7076 23.0458 29.289 21.0206 27.8025 21.5161C27.1166 21.7447 26.417 22.184 25.83 22.735Z" fill="#FFC7B3"/>
<path d="M34.8446 37.1436C34.8446 37.1436 34.9838 44.0018 41.3919 44.9336L41.6501 41.3686C41.6501 41.3686 36.8583 39.3542 34.8446 37.1436Z" fill="#B27059"/>
<path d="M26.7286 47.8127C29.1534 48.1351 31.7361 48.2087 32.8259 48.2909C34.3967 48.4092 35.2276 51.6086 35.6307 53.5638C35.7844 53.5277 35.93 53.4715 36.0577 53.3655C36.101 53.3294 36.1414 53.2897 36.1781 53.2457C36.2885 53.1152 36.3729 52.9522 36.4349 52.7676C36.5099 52.5462 36.5532 52.2937 36.5748 52.0298C36.6361 51.2739 36.5178 50.425 36.4356 49.9375C36.326 49.2898 36.0909 48.6465 35.7245 48.1048C35.4497 47.6973 35.1013 47.349 34.6758 47.1002C33.2586 46.27 31.4397 46.7338 29.8559 46.3003C28.901 46.0385 28.0434 45.4377 27.4708 44.63C27.4181 44.5557 27.3684 44.4807 27.3208 44.4035C27.0813 45.8907 26.8642 47.1023 26.7286 47.8127Z" fill="#B27059"/>
<path d="M36.2834 52.7366C36.2733 52.681 36.2625 52.6262 36.2532 52.5707C36.1291 52.425 36.0209 52.2663 35.9293 52.0954L36.2834 52.7366Z" fill="#B27059"/>
<path d="M35.7245 48.6342C35.8356 49.9541 36.0123 51.2681 36.2531 52.5707C36.2806 52.6039 36.3087 52.6363 36.339 52.668C36.37 52.7019 36.4017 52.7351 36.4349 52.7676C36.5099 52.5462 36.5532 52.2937 36.5748 52.0298C37.2751 50.3709 38.4601 49.2444 39.5939 48.6378C40.0526 48.3926 40.7334 48.3356 41.5772 48.3998C41.4546 47.887 41.4034 47.168 41.3933 46.3818C40.7507 46.8139 40.2415 47.5055 39.4893 47.6945C38.5402 47.9339 37.5687 47.287 36.5943 47.3829C36.3173 47.4103 36.0281 47.5113 35.8651 47.737C35.7865 47.8459 35.7447 47.9714 35.7245 48.1041C35.6985 48.2765 35.7101 48.4597 35.7245 48.6342Z" fill="#B27059"/>
<path d="M24.65 26.5438C25.2833 27.6083 27.0791 28.7637 28.4292 29.5246C28.8887 32.3049 28.3088 37.7192 27.6806 42.0552C27.3135 44.5896 26.9298 46.7561 26.7286 47.8127C29.1534 48.1351 31.7361 48.2087 32.8258 48.2909C34.8525 48.4438 35.6473 53.7261 35.8817 54.8469C35.9278 54.9716 35.9509 55.043 35.9509 55.043C36.031 51.68 37.8723 49.5588 39.5938 48.6378C40.0525 48.3926 40.7334 48.3356 41.5772 48.3998C41.3103 47.2819 41.381 45.1846 41.4856 43.5553C41.5541 42.4944 41.6371 41.6326 41.65 41.3686C43.7769 42.1143 46.0632 42.3019 48.1541 41.2049C54.5787 37.8324 50.4447 27.8766 47.2799 22.0513C45.867 19.4505 44.6475 17.6734 44.6475 17.6734C44.2053 17.3835 33.55 15.7737 32.74 17.8617C31.9308 19.9496 33.5117 21.0899 33.0855 21.9424C32.6592 22.7941 31.7649 24.9246 31.7649 24.9246C31.7649 24.9246 29.8479 20.8346 27.8025 21.5161C27.0279 21.7743 26.2353 22.3015 25.6071 22.9542C24.5765 24.0245 23.9887 25.4324 24.65 26.5438Z" stroke="black" stroke-width="0.641089" stroke-linecap="round" stroke-linejoin="round"/>
<path d="M1.51746 56.2712C1.51746 56.2712 4.19248 70.1476 4.46511 70.4195C4.73701 70.6914 34.7119 82.8903 34.7119 82.8903C34.7119 82.8903 54.0299 79.7609 54.0299 79.4435C54.0299 79.1262 67.9056 58.5381 67.9056 58.5381C67.9056 58.5381 66.4999 56.5886 63.0085 54.2302C62.319 53.765 61.1196 53.3149 59.6302 52.8865C59.6288 52.8858 59.6266 52.8858 59.6252 52.8851C58.7403 52.6305 57.7522 52.3831 56.7086 52.1451C53.877 54.3009 41.6414 49.8985 39.9372 50.4524C38.1767 51.0243 36.5863 52.8988 35.9509 55.043C35.9509 55.043 35.9279 54.9716 35.8817 54.8468C35.5637 53.9828 34.1645 50.5425 31.9546 50.2562C30.1328 50.0204 26.7899 49.835 24.1228 49.3475C22.6335 49.7463 20.6198 50.2266 18.5081 50.7113C13.559 51.848 8.06763 53.012 7.50291 53.2327C6.46002 53.6409 1.51746 56.2712 1.51746 56.2712Z" stroke="black" stroke-width="0.641089" stroke-linecap="round" stroke-linejoin="round"/>
<path d="M28.4293 29.5246C29.3474 30.0424 30.0607 30.3778 30.0607 30.3778" stroke="black" stroke-width="0.641089" stroke-linecap="round" stroke-linejoin="round"/>
<path d="M34.8446 37.1436C36.2647 38.3913 38.815 40.3754 41.6501 41.3686" stroke="black" stroke-width="0.641089" stroke-linecap="round" stroke-linejoin="round"/>
<path d="M22.7871 15.5905C22.8492 15.8018 23.0396 15.9439 23.1925 16.1026C23.9685 16.9125 23.8012 18.1999 23.9887 19.3063C24.0327 19.5652 24.2 19.889 24.4561 19.827C24.2671 20.1343 24.2837 20.5555 24.4964 20.8468C24.7092 21.1389 25.1044 21.2832 25.4557 21.1981C25.4578 21.4325 25.3554 21.6654 25.1823 21.8226C25.3381 22.1465 25.3158 22.5496 25.1254 22.854C25.2898 22.8107 25.4723 22.8518 25.6071 22.9542C26.2353 22.3015 27.0279 21.7743 27.8025 21.5161C29.8479 20.8346 31.765 24.9246 31.765 24.9246C31.765 24.9246 32.6593 22.7941 33.0855 21.9424C33.5118 21.0899 31.9308 19.9496 32.7401 17.8617C33.55 15.7737 44.2054 17.3835 44.6475 17.6734C44.6475 17.6734 45.8671 19.4505 47.28 22.0513C47.5281 21.5587 47.7185 21.0286 47.8353 20.4855C47.9154 20.1148 47.9608 19.7376 47.9673 19.3611C47.976 18.8144 47.919 18.236 48.17 17.7506C47.6961 17.5003 47.8548 16.7993 47.7589 16.2721C47.6464 15.6504 47.0903 15.0987 47.2338 14.4827C46.8141 14.1481 46.6258 13.5502 46.7766 13.0352C46.1678 12.7756 45.7697 12.0919 45.8447 11.4341C45.3334 11.2971 44.9144 10.8607 44.7982 10.3443C44.4903 10.5412 44.0878 10.5816 43.7474 10.4496C43.5866 10.3869 43.4344 10.2874 43.2627 10.2801C42.8992 10.2657 42.6216 10.6602 42.2581 10.6631C41.6623 10.6689 41.3984 9.67287 40.807 9.74571C40.5329 9.77961 40.3454 10.0429 40.0865 10.1388C39.648 10.3011 39.2015 9.94621 38.8676 9.61877C38.6354 10.164 37.9213 10.4431 37.3811 10.1994C37.2109 10.1222 37.0595 10.0025 36.8813 9.94621C36.8496 9.93611 36.8171 9.92818 36.7854 9.92313C36.3722 9.84668 35.9546 10.1013 35.5608 10.2787C35.136 10.4705 34.5258 10.5189 34.3073 10.1078C34.1508 10.5607 33.5341 10.6343 33.0682 10.5239C32.6023 10.4128 32.1126 10.2015 31.6654 10.3717C31.2507 10.5297 30.8187 10.9934 30.4639 10.728C30.3932 10.6754 30.3427 10.5996 30.2699 10.5506C30.0809 10.4222 29.8148 10.521 29.6474 10.6768C29.4794 10.8326 29.3618 11.0389 29.1808 11.1788C28.7769 11.4904 28.0997 11.323 27.8884 10.8586C27.5004 11.7125 26.2231 11.9851 25.5199 11.3649C25.2876 11.6635 25.2761 12.0717 25.1773 12.4366C25.0785 12.8023 24.7893 13.191 24.4142 13.1405C24.2007 13.1117 24.006 12.9415 23.7947 12.9855C23.579 13.0295 23.4723 13.2675 23.3995 13.4752C23.222 13.9786 23.0446 14.482 22.8665 14.9847C22.798 15.1801 22.728 15.3915 22.7871 15.5905Z" fill="#3D0027" stroke="black" stroke-width="0.641089" stroke-linecap="round" stroke-linejoin="round"/>
<path d="M29.9583 27.3177C29.9879 27.0097 29.8631 26.7068 29.7023 26.4421C29.3114 25.8002 28.6846 25.3047 27.9692 25.0725C27.6165 24.9586 27.1838 24.9239 26.9191 25.1836" stroke="black" stroke-width="0.641089" stroke-linecap="round" stroke-linejoin="round"/>
<path d="M29.0401 25.759C28.9442 25.6638 28.7949 25.6386 28.6622 25.6646C28.5295 25.6905 28.4098 25.7598 28.2966 25.8333C28.1199 25.9466 27.9489 26.0735 27.8148 26.235C27.6806 26.3966 27.584 26.5957 27.576 26.8055" stroke="black" stroke-width="0.641089" stroke-linecap="round" stroke-linejoin="round"/>
<path d="M45.3874 26.9974C45.4942 27.0688 47.3441 30.6627 46.4902 31.1604C45.6363 31.6587 43.9991 29.5246 43.9991 29.5246" stroke="black" stroke-width="0.641089" stroke-linecap="round" stroke-linejoin="round"/>
<path d="M40.3887 31.0839L44.2451 34.8321C44.2451 34.8321 42.8214 36.9792 40.7392 35.3716C38.2473 33.4474 40.3887 31.0839 40.3887 31.0839Z" fill="white" stroke="black" stroke-width="0.641089" stroke-linecap="round" stroke-linejoin="round"/>
<path d="M36.7241 10.0804C36.7183 10.2022 36.8208 10.2996 36.9145 10.3782C37.4367 10.8153 37.9625 11.2545 38.5596 11.5812C39.4525 12.0702 40.4658 12.2859 41.4106 12.6631C42.5567 13.1203 43.596 13.812 44.5638 14.5772C45.2858 15.147 45.9854 15.7752 46.4455 16.5714C47.1401 17.7722 47.2273 19.2443 47.8353 20.4855C47.9154 20.1148 47.9608 19.7376 47.9673 19.3611C47.976 18.8144 47.919 18.236 48.17 17.7506C47.6961 17.5003 47.8548 16.7993 47.7589 16.2721C47.6464 15.6504 47.0903 15.0987 47.2338 14.4827C46.8141 14.1481 46.6258 13.5502 46.7766 13.0352C46.1678 12.7756 45.7697 12.0919 45.8447 11.4341C45.3334 11.2971 44.9144 10.8607 44.7982 10.3443C44.4903 10.5412 44.0878 10.5816 43.7474 10.4496C43.5866 10.3869 43.4344 10.2874 43.2627 10.2801C42.8992 10.2657 42.6216 10.6602 42.2581 10.6631C41.6623 10.6689 41.3984 9.67287 40.807 9.74571C40.5329 9.77961 40.3454 10.0429 40.0865 10.1388C39.648 10.3011 39.2015 9.94621 38.8676 9.61877C38.6354 10.164 37.9213 10.4431 37.3811 10.1994C37.2109 10.1222 37.0595 10.0025 36.8813 9.94621C36.8496 9.93611 36.8171 9.92818 36.7854 9.92313C36.7537 9.97145 36.727 10.0234 36.7241 10.0804Z" fill="#6D1151"/>
<path d="M35.951 55.0431C35.8709 58.4054 35.431 73.8563 35.431 73.8563" stroke="black" stroke-width="0.641089" stroke-linecap="round" stroke-linejoin="round"/>
<path d="M41.5772 48.3998C43.8988 48.5758 47.4581 49.6692 51.0484 50.283C54.2059 50.8232 57.4319 50.0803 55.261 48.0839C55.1428 47.975 55.0021 47.8661 54.842 47.7558C54.8399 47.7551 54.8384 47.7536 54.8362 47.7522C54.8348 47.7515 54.8341 47.7507 54.8341 47.7507C51.7487 45.6512 41.4856 43.5554 41.4856 43.5554C41.3811 45.1846 41.3104 47.2819 41.5772 48.3998Z" fill="#0638C4" stroke="black" stroke-width="0.641089" stroke-linecap="round" stroke-linejoin="round"/>
<path d="M21.4983 45.396C21.4514 46.767 23.9894 47.4486 26.7287 47.8128C26.9299 46.7562 27.3136 44.5896 27.6807 42.0552C27.6807 42.0552 24.4546 42.4555 22.6631 43.6686C21.9916 44.123 21.5221 44.6913 21.4983 45.396Z" fill="#0638C4" stroke="black" stroke-width="0.641089" stroke-linecap="round" stroke-linejoin="round"/>
<path d="M35.951 55.0431C36.5864 52.8989 38.1767 51.0244 39.9372 50.4525C41.6415 49.8986 53.8771 54.3009 56.7086 52.1452C56.8024 52.0745 56.886 51.9959 56.9581 51.9101C57.8856 50.8066 57.0591 49.6057 56.1807 48.7792C56.1785 48.7771 56.1756 48.7749 56.1734 48.7727C55.5568 48.1943 54.9164 47.8005 54.8421 47.7558C55.0022 47.8661 55.1428 47.9751 55.2611 48.084C57.432 50.0803 54.2059 50.8232 51.0484 50.283C47.4582 49.6692 43.8989 48.5758 41.5773 48.3999C40.7334 48.3357 40.0526 48.3926 39.5939 48.6379C37.8723 49.5589 36.031 51.68 35.951 55.0431Z" fill="#4C70F5" stroke="black" stroke-width="0.641089" stroke-linecap="round" stroke-linejoin="round"/>
<path d="M35.9509 55.043C35.9387 55.0856 35.9163 55.0106 35.8817 54.8469" stroke="black" stroke-width="0.641089" stroke-linecap="round" stroke-linejoin="round"/>
<path d="M20.2239 47.6699C20.6061 48.4792 22.1863 48.9934 24.1228 49.3475C26.7899 49.8351 30.1328 50.0204 31.9546 50.2563C34.1645 50.5426 35.5636 53.9828 35.8817 54.8469C35.6473 53.7261 34.8525 48.4438 32.8259 48.2909C31.7361 48.2087 29.1534 48.1351 26.7286 47.8127C23.9894 47.4485 21.4514 46.767 21.4983 45.3959C21.5221 44.6913 21.9916 44.123 22.6631 43.6686C22.5967 43.696 20.829 44.4367 20.2015 45.7421C20.2015 45.7421 20.2015 45.7428 20.2001 45.7443C19.939 46.2902 19.877 46.9357 20.2239 47.6699Z" fill="#4C70F5" stroke="black" stroke-width="0.641089" stroke-linecap="round" stroke-linejoin="round"/>
<path d="M22.6631 43.6686L22.6655 43.6678" stroke="black" stroke-width="0.641089" stroke-linecap="round" stroke-linejoin="round"/>
<path d="M18.5081 50.7113C20.6199 50.2267 22.6335 49.7463 24.1229 49.3475C22.1864 48.9934 20.6062 48.4792 20.2239 47.6699C19.877 46.9357 19.939 46.2902 20.2001 45.7443C20.1503 45.8265 18.5557 48.482 18.5081 50.7113Z" fill="#0638C4" stroke="black" stroke-width="0.641089" stroke-linecap="round" stroke-linejoin="round"/>
<path d="M20.2001 45.7445L20.2017 45.7421" stroke="black" stroke-width="0.641089" stroke-linecap="round" stroke-linejoin="round"/>
<path d="M56.9581 51.91C56.886 51.9959 56.8023 52.0745 56.7086 52.1452C57.7522 52.3832 58.7402 52.6305 59.6252 52.8851C59.6266 52.8859 59.6288 52.8859 59.6302 52.8866C58.733 51.0006 56.1734 48.7727 56.1734 48.7727C57.0547 49.5992 57.8885 50.8037 56.9581 51.91Z" fill="#0638C4" stroke="black" stroke-width="0.641089" stroke-linecap="round" stroke-linejoin="round"/>
<path d="M34.7119 58.3138C34.7119 58.895 35.183 59.3661 35.7641 59.3661C36.3453 59.3661 36.8164 58.895 36.8164 58.3138V56.5634C36.8164 55.9823 36.3453 55.5111 35.7641 55.5111C35.183 55.5111 34.7119 55.9823 34.7119 56.5634V58.3138Z" fill="#F5D256" stroke="black" stroke-width="0.641089" stroke-linecap="round" stroke-linejoin="round"/>
<path d="M22.7871 15.5905C22.8492 15.8018 23.0396 15.9439 23.1925 16.1026C23.9685 16.9125 23.8012 18.1999 23.9887 19.3063C24.0327 19.5652 24.2 19.889 24.4561 19.827C24.2671 20.1343 24.2837 20.5554 24.4964 20.8468C24.7092 21.1389 25.1044 21.2832 25.4557 21.1981C25.4578 21.4325 25.3554 21.6654 25.1823 21.8226C25.3381 22.1465 25.3158 22.5496 25.1254 22.854C25.2898 22.8107 25.4723 22.8518 25.6071 22.9542C26.2353 22.3015 27.0279 21.7743 27.8025 21.5161C29.8479 20.8346 31.765 24.9246 31.765 24.9246C31.765 24.9246 32.6593 22.7941 33.0855 21.9424C33.5118 21.0899 31.9308 19.9496 32.7401 17.8617C33.55 15.7737 44.2054 17.3835 44.6475 17.6734C44.6475 17.6734 45.8671 19.4505 47.28 22.0513C47.6976 21.2219 47.9522 20.2886 47.9673 19.3611C47.976 18.8144 47.919 18.236 48.17 17.7506C47.6961 17.5003 47.8548 16.7993 47.7589 16.2721C47.6464 15.6504 47.0903 15.0987 47.2338 14.4827C46.8141 14.1481 46.6258 13.5502 46.7766 13.0352C46.1678 12.7756 45.7697 12.0919 45.8447 11.4341C45.3334 11.2971 44.9144 10.8607 44.7982 10.3443C44.4903 10.5412 44.0878 10.5816 43.7474 10.4496C43.5866 10.3869 43.4344 10.2874 43.2627 10.2801C42.8992 10.2657 42.6216 10.6602 42.2581 10.6631C41.6623 10.6689 41.3984 9.67287 40.807 9.74571C40.5329 9.77961 40.3454 10.0429 40.0865 10.1388C39.648 10.3011 39.2015 9.94621 38.8676 9.61877C38.6354 10.164 37.9213 10.4431 37.3811 10.1994C37.2109 10.1222 37.0595 10.0025 36.8813 9.94621C36.4371 9.80629 35.9856 10.0876 35.5608 10.2787C35.136 10.4705 34.5258 10.5189 34.3073 10.1078C34.1508 10.5607 33.5341 10.6343 33.0682 10.5239C32.6023 10.4128 32.1126 10.2015 31.6654 10.3717C31.2507 10.5297 30.8187 10.9934 30.4639 10.728C30.3932 10.6754 30.3427 10.5996 30.2699 10.5506C30.0809 10.4222 29.8148 10.521 29.6474 10.6768C29.4794 10.8326 29.3618 11.0389 29.1808 11.1788C28.7769 11.4904 28.0997 11.323 27.8884 10.8586C27.5004 11.7125 26.2231 11.9851 25.5199 11.3649C25.2876 11.6635 25.2761 12.0717 25.1773 12.4366C25.0785 12.8023 24.7893 13.191 24.4142 13.1405C24.2007 13.1117 24.006 12.9415 23.7947 12.9855C23.579 13.0295 23.4723 13.2675 23.3995 13.4752C23.222 13.9786 23.0446 14.482 22.8665 14.9847C22.798 15.1801 22.728 15.3915 22.7871 15.5905Z" stroke="black" stroke-width="0.641089" stroke-linecap="round" stroke-linejoin="round"/>
<path opacity="0.52" d="M19.7609 72.2774C19.8287 74.8644 20.322 77.6137 19.1536 79.9224C18.7526 80.715 18.0934 81.4564 17.2193 81.6144C16.2766 81.7846 15.3665 81.2458 14.5594 80.7301C13.3513 79.9577 12.1433 79.1853 10.9352 78.4128C10.0546 77.8496 9.15309 77.2668 8.54077 76.4201C7.81089 75.4097 7.56928 74.1252 7.51591 72.8796C7.43441 70.9792 7.7431 69.0816 8.16501 67.2266C8.97495 63.6616 10.2494 60.1125 12.5868 57.3011C13.0693 56.7205 13.6031 56.1681 14.2522 55.7808C16.0624 54.7011 19.2575 53.8883 20.1979 56.4075C21.3072 59.379 20.5001 63.2671 20.1511 66.3157C19.9246 68.294 19.7082 70.2825 19.7609 72.2774Z" fill="#0B41B7"/>
<path d="M18.1472 55.8884L10.9731 69.1279C10.9731 69.1279 -3.11242 48.9545 -2.85422 49.0064C-2.71791 49.0331 3.22788 47.1551 8.81089 45.3758C9.12318 47.1522 9.90138 49.5185 11.4917 51.5675C13.333 53.9404 16.1681 55.3511 18.1472 55.8884Z" fill="#CC927A" stroke="black" stroke-width="0.641089" stroke-linecap="round" stroke-linejoin="round"/>
<path d="M31.5251 45.9066C31.0895 46.7317 23.7683 48.49 22.3237 48.1806L21.7496 49.2408L20.1752 52.1467L19.3371 53.6923C19.3371 53.6923 16.6527 52.5794 14.4011 49.7782C13.4858 48.6393 12.9125 47.5964 12.554 46.7375C11.9518 45.2979 11.9518 44.3733 11.9518 44.3733C12.5028 44.1973 13.0365 44.0264 13.5457 43.8634C14.5489 43.5417 15.4569 43.2511 16.2135 43.0087C17.6235 42.5565 18.5084 42.2716 18.5084 42.2716C18.5084 42.2716 18.489 38.8934 20.199 37.443C22.4802 35.508 22.8546 31.2462 23.8203 31.0854C24.641 30.9484 25.4539 33.4157 25.3118 35.8888C25.2873 36.3251 25.2324 36.7622 25.1423 37.1848C25.1423 37.1848 29.8512 36.8257 30.3668 37.2382C30.8825 37.6515 31.347 38.2703 30.5731 39.2504C30.5731 39.2504 31.6535 40.4888 30.9842 41.4689C30.9842 41.4689 32.0386 42.7981 31.2027 43.7328C31.2027 43.7328 31.9608 45.0808 31.5251 45.9066Z" fill="#CC927A" stroke="black" stroke-width="0.641089" stroke-linecap="round" stroke-linejoin="round"/>
<path d="M20.15 56.0868C19.8904 56.1647 19.4562 56.1567 18.9066 56.0608C18.9044 56.0608 18.9023 56.0601 18.9001 56.0594C18.6679 56.0183 18.4155 55.9613 18.1472 55.8884C16.1681 55.3511 13.333 53.9404 11.4917 51.5676C9.90139 49.5186 9.12318 47.1522 8.81089 45.3758C8.68973 44.6885 8.63924 44.0899 8.63708 43.6326C8.63563 43.2756 8.66448 43.0044 8.71353 42.8429C8.98831 41.9392 10.733 41.9745 11.5739 41.9356C12.4156 41.8959 13.5457 43.8634 13.5457 43.8634C13.0366 44.0264 12.5028 44.1974 11.9518 44.3733C11.9518 44.3733 11.9518 46.0206 13.3842 48.3422C13.664 48.7973 13.9994 49.2784 14.4011 49.7782C16.6528 52.5794 19.3372 53.6923 19.3372 53.6923L20.1752 52.1467C20.2164 52.1669 21.5283 52.8369 21.7288 53.6923C21.8031 54.0104 21.3285 55.7334 20.15 56.0868Z" fill="#49A2A6" stroke="black" stroke-width="0.641089" stroke-linecap="round" stroke-linejoin="round"/>
<path d="M20.1753 52.1467H20.1745" stroke="black" stroke-width="0.641089" stroke-linecap="round" stroke-linejoin="round"/>
<path d="M20.15 56.0868C20.15 56.0868 18.4565 62.0549 17.7173 64.0412C17.6242 64.2922 17.4865 64.6672 17.3112 65.1288C17.0833 65.7274 16.792 66.471 16.4501 67.2766C15.8132 68.7753 15.0011 70.4889 14.1011 71.8795H14.1003C13.1902 73.283 12.1898 74.3576 11.1866 74.5516C8.7373 75.0254 3.62814 71.1633 0.0371513 67.2268C-0.689845 66.4299 -1.35482 65.6293 -1.92242 64.8619C-3.01075 63.3906 -3.96565 61.3798 -4.68904 59.2515C-6.20794 54.785 -6.70992 49.7991 -5.29487 48.1908C-4.82896 47.6621 -3.87983 47.1421 -2.68476 46.6538C-1.95487 46.356 -1.13268 46.0697 -0.273697 45.8006C3.77094 44.5298 8.63705 43.6326 8.63705 43.6326C8.63921 44.0899 8.6897 44.6885 8.81087 45.3758C9.00416 46.4757 9.37631 47.802 10.0095 49.1392C10.3983 49.9614 10.8858 50.7879 11.4917 51.5676C11.5075 51.5885 11.5234 51.6087 11.54 51.6289C12.6197 52.9985 14.0297 54.0428 15.4072 54.7799C16.3794 55.3006 17.335 55.6677 18.1471 55.8884C19.053 56.1351 19.78 56.1978 20.15 56.0868Z" fill="#4C70F5" stroke="black" stroke-width="0.641089" stroke-linecap="round" stroke-linejoin="round"/>
<path d="M21.7496 49.2408L20.1752 52.1467L19.3371 53.6923C19.3371 53.6923 16.6527 52.5794 14.4011 49.7782C13.4858 48.6393 12.9125 47.5965 12.554 46.7375C12.5922 46.7036 12.6362 46.6762 12.686 46.6567C12.8901 46.5774 13.1173 46.6661 13.3149 46.7598C15.167 47.6383 16.8554 49.106 18.9044 49.1824C19.5413 49.2062 20.1767 49.0901 20.8135 49.1096C21.1301 49.1197 21.4438 49.1644 21.7496 49.2408Z" fill="#B27059"/>
<path d="M25.3118 35.8888C24.3021 36.3734 23.1056 36.6612 22.4024 37.5216C22.023 37.9854 21.8312 38.5696 21.6249 39.1321C21.1345 40.4686 20.5171 41.7704 19.6581 42.9063C19.2456 43.453 18.7155 43.9918 18.0354 44.0689C17.294 44.1526 16.629 43.6506 16.2136 43.0087C17.6236 42.5565 18.5085 42.2716 18.5085 42.2716C18.5085 42.2716 18.489 38.8934 20.1991 37.443C22.4803 35.508 22.8546 31.2462 23.8203 31.0854C24.6411 30.9484 25.4539 33.4157 25.3118 35.8888Z" fill="#FFC7B3"/>
<path d="M20.15 56.0867C20.15 56.0867 18.4565 62.0549 17.7173 64.0411C17.6242 64.2921 17.4865 64.6672 17.3112 65.1287C17.1727 65.0018 17.0408 64.8677 16.9153 64.7306C15.9769 63.7094 15.2629 62.5049 14.6095 61.2824C13.7541 59.6835 12.9889 58.0369 12.3182 56.3521C11.7174 54.8419 11.1923 53.3028 10.668 51.7644C10.4776 51.2055 9.94389 49.9715 10.0095 49.1392C10.3983 49.9614 10.8858 50.7879 11.4916 51.5675C13.3329 53.9404 16.1681 55.3511 18.1471 55.8884C19.053 56.1351 19.78 56.1978 20.15 56.0867Z" fill="#0638C4"/>
<path d="M20.15 56.0868C19.8904 56.1646 19.4562 56.1567 18.9066 56.0608C18.9044 56.0608 18.9023 56.0601 18.9001 56.0593C17.9358 55.8105 16.9917 55.5235 16.2575 54.8722C15.9827 54.6284 15.7491 54.3414 15.5168 54.0565C15.1418 53.5956 14.7668 53.1348 14.3917 52.6739C13.9258 52.1013 13.4534 51.5185 13.1692 50.8377C12.8844 50.1575 12.8086 49.3519 13.1397 48.6927C13.2096 48.5521 13.2926 48.4381 13.3842 48.3422C13.664 48.7973 13.9994 49.2784 14.4011 49.7782C16.6528 52.5794 19.3372 53.6923 19.3372 53.6923L20.1752 52.1467C20.2163 52.1669 21.5283 52.8369 21.7288 53.6923C21.803 54.0103 21.3285 55.7334 20.15 56.0868Z" fill="#2D8787"/>
<path d="M6.58518 64.5302L0.037168 67.2268C-0.689828 66.4299 -1.3548 65.6293 -1.9224 64.8619C-3.01073 63.3906 -3.96564 61.3799 -4.68903 59.2515L6.58518 64.5302Z" fill="#BF9EF9" stroke="black" stroke-width="0.641089" stroke-linecap="round" stroke-linejoin="round"/>
<path d="M4.45538 48.6733L-2.27005 52.454L-2.68475 46.6539C-1.95487 46.356 -1.13267 46.0697 -0.273695 45.8007L4.45538 48.6733Z" fill="#F5D256" stroke="black" stroke-width="0.641089" stroke-linecap="round" stroke-linejoin="round"/>
<path d="M16.6528 59.2255L7.25085 56.9284L11.54 51.6288C12.6197 52.9985 14.0297 54.0428 15.4072 54.7799L16.6528 59.2255Z" fill="#E938B5" stroke="black" stroke-width="0.641089" stroke-linecap="round" stroke-linejoin="round"/>
<path d="M16.4501 67.2766C15.8133 68.7753 15.0012 70.4889 14.1011 71.8794H14.1004L11.7708 73.1892L11.1174 64.0375L16.4501 67.2766Z" fill="#49A2A6" stroke="black" stroke-width="0.641089" stroke-linecap="round" stroke-linejoin="round"/>
<path d="M20.15 56.0868C19.78 56.1978 19.053 56.1351 18.1472 55.8884C16.1681 55.3511 13.333 53.9404 11.4917 51.5676C9.90139 49.5186 9.12318 47.1522 8.81089 45.3758C8.68973 44.6885 8.63924 44.0899 8.63708 43.6326C8.63563 43.2756 8.66448 43.0044 8.71353 42.8429C8.98831 41.9392 10.733 41.9745 11.5739 41.9356C12.4156 41.8959 13.5457 43.8634 13.5457 43.8634C13.0366 44.0264 12.5028 44.1974 11.9518 44.3733C11.9518 44.3733 11.9518 46.7296 14.4011 49.7782C16.6528 52.5794 19.3372 53.6923 19.3372 53.6923L20.1752 52.1467C20.2164 52.1669 21.5283 52.8369 21.7288 53.6923C21.8031 54.0104 21.3285 55.7334 20.15 56.0868Z" stroke="black" stroke-width="0.641089" stroke-linecap="round" stroke-linejoin="round"/>
<path d="M17.7173 64.0404C17.0516 65.8298 14.1314 73.9811 11.1866 74.5509C8.24182 75.1206 1.45004 69.4208 -1.92241 64.8612C-5.29487 60.3016 -7.38426 50.5658 -5.29487 48.1908C-3.20475 45.8165 8.63706 43.6326 8.63706 43.6326C8.63922 44.0899 8.68971 44.6885 8.81087 45.3758C9.12316 47.1522 9.90136 49.5186 11.4917 51.5676C13.333 53.9404 16.1681 55.3511 18.1471 55.8884C19.053 56.1351 19.78 56.1978 20.15 56.0868C20.15 56.0868 18.4565 62.0549 17.7173 64.0412V64.0404Z" stroke="black" stroke-width="0.641089" stroke-linecap="round" stroke-linejoin="round"/>
<path d="M31.5251 45.9066C31.0895 46.7317 23.7683 48.4901 22.3237 48.1807L20.1752 52.1467L19.3371 53.6923C19.3371 53.6923 16.6527 52.5794 14.4011 49.7782C11.9518 46.7296 11.9518 44.3733 11.9518 44.3733C12.5028 44.1973 13.0365 44.0264 13.5457 43.8634C16.4183 42.9438 18.5084 42.2717 18.5084 42.2717C18.5084 42.2717 18.489 38.8934 20.199 37.443C22.4802 35.508 22.8546 31.2463 23.8203 31.0854C24.786 30.9239 25.7402 34.3677 25.1423 37.1848C25.1423 37.1848 29.8512 36.8257 30.3668 37.2382C30.8825 37.6515 31.347 38.2703 30.5731 39.2504C30.5731 39.2504 31.6535 40.4888 30.9842 41.4689C30.9842 41.4689 32.0386 42.7981 31.2027 43.7329C31.2027 43.7329 31.9608 45.0808 31.5251 45.9066Z" stroke="black" stroke-width="0.641089" stroke-linecap="round" stroke-linejoin="round"/>
</g>
<defs>
<clipPath id="clip0_542_65">
<rect width="72" height="72" rx="36" fill="white"/>
</clipPath>
</defs>
</svg>
