<svg width="304" height="150" viewBox="0 0 304 150" fill="none" xmlns="http://www.w3.org/2000/svg">
<path d="M1.14288 25.6667V1H26.2857M1.14288 25.6667V50.3333M1.14288 25.6667H26.2857M1.14288 50.3333V75M1.14288 50.3333H26.2857M1.14288 75V99.6667M1.14288 75H26.2857M1.14288 99.6667V124.333M1.14288 99.6667H26.2857M1.14288 124.333V149H26.2857M1.14288 124.333H26.2857M26.2857 1V25.6667M26.2857 1H51.4286M26.2857 25.6667V50.3333M26.2857 25.6667H51.4286M26.2857 50.3333V75M26.2857 50.3333H51.4286M26.2857 75V99.6667M26.2857 75H51.4286M26.2857 99.6667V124.333M26.2857 99.6667H51.4286M26.2857 124.333V149M26.2857 124.333H51.4286M26.2857 149H51.4286M51.4286 1V25.6667M51.4286 1H76.5715M51.4286 25.6667V50.3333M51.4286 25.6667H76.5715M51.4286 50.3333V75M51.4286 50.3333H76.5715M51.4286 75V99.6667M51.4286 75H76.5715M51.4286 99.6667V124.333M51.4286 99.6667H76.5715M51.4286 124.333V149M51.4286 124.333H76.5715M51.4286 149H76.5715M76.5715 1V25.6667M76.5715 1H101.714M76.5715 25.6667V50.3333M76.5715 25.6667H101.714M76.5715 50.3333V75M76.5715 50.3333H101.714M76.5715 75V99.6667M76.5715 75H101.714M76.5715 99.6667V124.333M76.5715 99.6667H101.714M76.5715 124.333V149M76.5715 124.333H101.714M76.5715 149H101.714M101.714 1V25.6667M101.714 1H126.857M101.714 25.6667V50.3333M101.714 25.6667H126.857M101.714 50.3333V75M101.714 50.3333H126.857M101.714 75V99.6667M101.714 75H126.857M101.714 99.6667V124.333M101.714 99.6667H126.857M101.714 124.333V149M101.714 124.333H126.857M101.714 149H126.857M126.857 1V25.6667M126.857 1H152M126.857 25.6667V50.3333M126.857 25.6667H152M126.857 50.3333V75M126.857 50.3333H152M126.857 75V99.6667M126.857 75H152M126.857 99.6667V124.333M126.857 99.6667H152M126.857 124.333V149M126.857 124.333H152M126.857 149H152M152 1V25.6667M152 1H177.143M152 25.6667V50.3333M152 25.6667H177.143M152 50.3333V75M152 50.3333H177.143M152 75V99.6667M152 75H177.143M152 99.6667V124.333M152 99.6667H177.143M152 124.333V149M152 124.333H177.143M152 149H177.143M177.143 1V25.6667M177.143 1H202.286M177.143 25.6667V50.3333M177.143 25.6667H202.286M177.143 50.3333V75M177.143 50.3333H202.286M177.143 75V99.6667M177.143 75H202.286M177.143 99.6667V124.333M177.143 99.6667H202.286M177.143 124.333V149M177.143 124.333H202.286M177.143 149H202.286M202.286 1V25.6667M202.286 1H227.429M202.286 25.6667V50.3333M202.286 25.6667H227.429M202.286 50.3333V75M202.286 50.3333H227.429M202.286 75V99.6667M202.286 75H227.429M202.286 99.6667V124.333M202.286 99.6667H227.429M202.286 124.333V149M202.286 124.333H227.429M202.286 149H227.429M227.429 1V25.6667M227.429 1H252.571M227.429 25.6667V50.3333M227.429 25.6667H252.571M227.429 50.3333V75M227.429 50.3333H252.571M227.429 75V99.6667M227.429 75H252.571M227.429 99.6667V124.333M227.429 99.6667H252.571M227.429 124.333V149M227.429 124.333H252.571M227.429 149H252.571M252.571 1V25.6667M252.571 1H277.714M252.571 25.6667V50.3333M252.571 25.6667H277.714M252.571 50.3333V75M252.571 50.3333H277.714M252.571 75V99.6667M252.571 75H277.714M252.571 99.6667V124.333M252.571 99.6667H277.714M252.571 124.333V149M252.571 124.333H277.714M252.571 149H277.714M277.714 1V25.6667M277.714 1H302.857V25.6667M277.714 25.6667V50.3333M277.714 25.6667H302.857M277.714 50.3333V75M277.714 50.3333H302.857M277.714 75V99.6667M277.714 75H302.857M277.714 99.6667V124.333M277.714 99.6667H302.857M277.714 124.333V149M277.714 124.333H302.857M277.714 149H302.857V124.333M302.857 25.6667V50.3333M302.857 50.3333V75M302.857 75V99.6667M302.857 99.6667V124.333" stroke="url(#paint0_radial_0_1)"/>
<path d="M130.95 59C132.082 59 133 59.7959 133 60.7778V89.2222C133 90.2041 132.082 91 130.95 91L39.0535 91C37.3065 91 36.3605 89.2257 37.4917 88.071L49.1698 76.1512C49.8202 75.4874 49.8202 74.5126 49.1698 73.8488L37.4917 61.929C36.3605 60.7743 37.3065 59 39.0535 59L130.95 59Z" fill="#FEF3EB"/>
<path d="M166.05 59C164.918 59 164 59.7959 164 60.7778L164 89.2222C164 90.2041 164.918 91 166.05 91L257.947 91C259.693 91 260.64 89.2257 259.508 88.071L247.83 76.1512C247.18 75.4874 247.18 74.5126 247.83 73.8488L259.508 61.929C260.64 60.7743 259.693 59 257.947 59L166.05 59Z" fill="#FEF3EB"/>
<g filter="url(#filter0_i_0_1)">
<path d="M148.285 11.1249C150.271 8.91984 153.729 8.91984 155.715 11.1249L156.954 12.4999C158.599 14.3269 161.329 14.6863 163.391 13.3474L164.943 12.3398C167.433 10.7239 170.773 11.619 172.121 14.2629L172.961 15.9116C174.078 18.1023 176.621 19.1559 178.96 18.3965L180.72 17.8249C183.543 16.9083 186.538 18.6375 187.155 21.5401L187.54 23.3501C188.052 25.7552 190.236 27.4313 192.692 27.303L194.539 27.2064C197.503 27.0516 199.948 29.497 199.794 32.4605L199.697 34.3085C199.569 36.764 201.245 38.9484 203.65 39.46L205.46 39.845C208.363 40.4624 210.092 43.4574 209.175 46.2799L208.604 48.0399C207.844 50.3785 208.898 52.9223 211.088 54.0389L212.737 54.8793C215.381 56.2269 216.276 59.5674 214.66 62.0565L213.653 63.6086C212.314 65.671 212.673 68.4008 214.5 70.0464L215.875 71.2848C218.08 73.2708 218.08 76.7292 215.875 78.7152L214.5 79.9536C212.673 81.5992 212.314 84.329 213.653 86.3914L214.66 87.9435C216.276 90.4326 215.381 93.773 212.737 95.1207L211.088 95.9611C208.898 97.0777 207.844 99.6215 208.604 101.96L209.175 103.72C210.092 106.543 208.363 109.538 205.46 110.155L203.65 110.54C201.245 111.052 199.569 113.236 199.697 115.692L199.794 117.539C199.948 120.503 197.503 122.948 194.539 122.794L192.692 122.697C190.236 122.569 188.052 124.245 187.54 126.65L187.155 128.46C186.538 131.363 183.543 133.092 180.72 132.175L178.96 131.604C176.621 130.844 174.078 131.898 172.961 134.088L172.121 135.737C170.773 138.381 167.433 139.276 164.943 137.66L163.391 136.653C161.329 135.314 158.599 135.673 156.954 137.5L155.715 138.875C153.729 141.08 150.271 141.08 148.285 138.875L147.046 137.5C145.401 135.673 142.671 135.314 140.609 136.653L139.057 137.66C136.567 139.276 133.227 138.381 131.879 135.737L131.039 134.088C129.922 131.898 127.379 130.844 125.04 131.604L123.28 132.175C120.457 133.092 117.462 131.363 116.845 128.46L116.46 126.65C115.948 124.245 113.764 122.569 111.308 122.697L109.461 122.794C106.497 122.948 104.052 120.503 104.206 117.539L104.303 115.692C104.431 113.236 102.755 111.052 100.35 110.54L98.5401 110.155C95.6375 109.538 93.9083 106.543 94.8249 103.72L95.3965 101.96C96.1559 99.6215 95.1023 97.0777 92.9116 95.9611L91.2629 95.1207C88.619 93.7731 87.7239 90.4326 89.3398 87.9435L90.3474 86.3914C91.6863 84.329 91.3269 81.5992 89.4999 79.9536L88.1249 78.7152C85.9198 76.7292 85.9198 73.2708 88.1249 71.2848L89.4999 70.0464C91.3269 68.4008 91.6863 65.671 90.3474 63.6086L89.3398 62.0565C87.7239 59.5674 88.619 56.2269 91.2629 54.8793L92.9116 54.0389C95.1023 52.9223 96.1559 50.3785 95.3965 48.0399L94.8249 46.2799C93.9083 43.4574 95.6375 40.4624 98.5401 39.845L100.35 39.46C102.755 38.9484 104.431 36.764 104.303 34.3085L104.206 32.4605C104.052 29.497 106.497 27.0516 109.461 27.2064L111.308 27.303C113.764 27.4313 115.948 25.7552 116.46 23.3501L116.845 21.5401C117.462 18.6375 120.457 16.9083 123.28 17.8249L125.04 18.3965C127.379 19.1559 129.922 18.1023 131.039 15.9116L131.879 14.2629C133.227 11.619 136.567 10.7239 139.057 12.3398L140.609 13.3474C142.671 14.6863 145.401 14.3269 147.046 12.4999L148.285 11.1249Z" fill="#FFBEA3"/>
</g>
<circle cx="152" cy="75" r="48" fill="white"/>
<circle cx="152" cy="75" r="49.5" stroke="url(#paint1_linear_0_1)" stroke-opacity="0.16" stroke-width="3" style="mix-blend-mode:luminosity"/>
<defs>
<filter id="filter0_i_0_1" x="86.4711" y="9.47107" width="131.058" height="135.058" filterUnits="userSpaceOnUse" color-interpolation-filters="sRGB">
<feFlood flood-opacity="0" result="BackgroundImageFix"/>
<feBlend mode="normal" in="SourceGraphic" in2="BackgroundImageFix" result="shape"/>
<feColorMatrix in="SourceAlpha" type="matrix" values="0 0 0 0 0 0 0 0 0 0 0 0 0 0 0 0 0 0 127 0" result="hardAlpha"/>
<feOffset dy="4"/>
<feGaussianBlur stdDeviation="2"/>
<feComposite in2="hardAlpha" operator="arithmetic" k2="-1" k3="1"/>
<feColorMatrix type="matrix" values="0 0 0 0 0.952 0 0 0 0 0.647328 0 0 0 0 0.248 0 0 0 0.06 0"/>
<feBlend mode="normal" in2="shape" result="effect1_innerShadow_0_1"/>
</filter>
<radialGradient id="paint0_radial_0_1" cx="0" cy="0" r="1" gradientUnits="userSpaceOnUse" gradientTransform="translate(152 75) rotate(90) scale(74 122.255)">
<stop stop-color="#CFD1D3"/>
<stop offset="1" stop-color="#CFD1D3" stop-opacity="0"/>
</radialGradient>
<linearGradient id="paint1_linear_0_1" x1="120.598" y1="36.8692" x2="177.121" y2="120.757" gradientUnits="userSpaceOnUse">
<stop stop-color="#0F0F10"/>
<stop offset="1" stop-color="#0F0F10" stop-opacity="0"/>
</linearGradient>
</defs>
</svg>
