<svg width="40" height="40" viewBox="0 0 40 40" fill="none" xmlns="http://www.w3.org/2000/svg">
<rect width="40" height="40" rx="8" fill="white"/>
<path d="M19.25 12.5C22.976 12.5 26 15.524 26 19.25C26 22.976 22.976 26 19.25 26C15.524 26 12.5 22.976 12.5 19.25C12.5 15.524 15.524 12.5 19.25 12.5ZM19.25 24.5C22.1502 24.5 24.5 22.1502 24.5 19.25C24.5 16.349 22.1502 14 19.25 14C16.349 14 14 16.349 14 19.25C14 22.1502 16.349 24.5 19.25 24.5ZM25.6137 24.5532L27.7355 26.6742L26.6742 27.7355L24.5532 25.6137L25.6137 24.5532Z" fill="#525866"/>
</svg>
